# xmcd CD database file
#
# Track frame offsets:
#	150
#	20124
#	42916
#	64988
#	87933
#	111874
#	123453
#	138531
#	154749
#	172785
#	183211
#	202497
#
# Disc length: 2825 seconds
#
# Revision: 1
# Processed by: cddbd v1.5.2PL0 Copyright (c) Steve Scherf et al.
# Submitted via: CDex 1.51
#
DISCID=ac0b070c
DTITLE=Joana Font - Boleros con Sabor a Jazz
DYEAR=2009
DGENRE=Jazz
TTITLE0=Bésame mucho
TTITLE1=Mía
TTITLE2=Yo te diré
TTITLE3=Sabor a mí
TTITLE4=Contigo en la distancia
TTITLE5=Solamente una vez
TTITLE6=Inolvidable
TTITLE7=Algo contigo
TTITLE8=Esta tarde vi llover
TTITLE9=Cuando vuelva a tu lado
TTITLE10=Contigo aprendí
TTITLE11=Quizás, quizás, quizás
EXTD=YEAR: 2009
EXTT0=
EXTT1=
EXTT2=
EXTT3=
EXTT4=
EXTT5=
EXTT6=
EXTT7=
EXTT8=
EXTT9=
EXTT10=
EXTT11=
PLAYORDER=
